<?xml version="1.0" standalone="no"?>
<svg version="1.0" xmlns="http://www.w3.org/2000/svg"
 viewBox="0 0 1492.000000 326.000000"
 preserveAspectRatio="xMidYMid meet">
<g transform="translate(0.000000,326.000000) scale(0.100000,-0.100000)"
fill="#000000" stroke="none">
<path d="M1070 2905 c-143 -24 -322 -98 -454 -188 -75 -50 -192 -166 -234
-231 -51 -78 -75 -152 -80 -241 -7 -132 25 -203 110 -246 39 -20 168 -42 168
-28 0 3 -7 23 -15 42 -10 25 -15 71 -15 140 0 187 53 328 165 441 67 68 212
154 202 120 -3 -11 -92 -419 -197 -909 -105 -490 -193 -897 -196 -906 -4 -14
9 -17 83 -23 164 -12 311 -79 516 -235 62 -47 160 -121 219 -165 181 -138 291
-194 400 -203 106 -10 184 40 243 158 28 55 65 185 65 229 l0 26 -72 -18 c-57
-15 -97 -18 -178 -15 -143 6 -219 33 -515 183 -133 67 -267 130 -298 140 -42
13 -56 22 -53 33 9 31 406 1890 406 1901 0 14 -176 11 -270 -5z"/>
<path d="M8936 2784 c-93 -13 -170 -25 -172 -27 -2 -2 -67 -300 -144 -663 -77
-362 -151 -690 -165 -729 -32 -86 -82 -156 -128 -178 -51 -25 -110 -22 -143 6
-49 43 -46 74 65 596 56 261 101 478 101 483 0 5 -87 7 -192 6 l-193 -3 -10
-55 -11 -55 -18 38 c-27 54 -80 79 -181 85 -156 8 -291 -45 -406 -158 -167
-167 -273 -409 -304 -697 l-7 -63 -81 -71 c-48 -41 -114 -86 -157 -107 -72
-35 -79 -37 -182 -37 -122 0 -148 11 -183 81 -17 33 -20 57 -19 159 3 311 166
715 305 757 89 26 124 -38 96 -176 -9 -44 -14 -83 -11 -87 9 -16 76 -31 109
-25 140 27 157 289 25 385 -107 77 -354 65 -509 -26 -139 -81 -276 -271 -345
-477 -82 -247 -93 -475 -29 -618 66 -147 238 -223 451 -198 169 19 307 87 446
221 l94 89 11 -46 c47 -186 214 -295 405 -264 94 15 161 54 253 146 l81 82 11
-45 c7 -24 23 -62 36 -83 87 -137 309 -140 502 -5 35 25 63 41 63 37 0 -4 -6
-33 -14 -65 l-13 -57 193 0 c193 0 194 0 199 23 3 12 34 161 70 330 72 344 62
322 169 377 72 37 115 38 152 6 39 -33 43 -114 14 -261 -46 -239 -21 -355 94
-432 61 -42 112 -55 206 -56 141 -1 243 51 344 175 l39 48 29 -50 c63 -111
188 -171 359 -172 277 -2 507 139 702 431 l37 56 -40 3 c-39 3 -45 -1 -135
-85 -148 -139 -241 -183 -385 -183 -145 1 -189 53 -190 226 l0 101 83 16 c314
62 529 286 529 552 0 168 -83 245 -272 253 -113 5 -203 -14 -299 -61 -124 -60
-270 -233 -340 -401 -45 -108 -90 -295 -97 -400 -10 -138 -62 -221 -154 -246
-50 -14 -110 1 -128 31 -19 30 -17 99 7 199 30 132 34 173 21 247 -13 82 -50
150 -104 192 -48 39 -102 53 -190 54 -62 0 -67 1 -50 14 10 8 126 89 257 179
130 91 237 167 237 170 0 2 -57 4 -127 4 l-128 0 -254 -201 c-139 -110 -255
-198 -257 -197 -1 2 37 190 85 418 49 228 93 436 99 463 12 57 29 55 -212 21z
m1680 -645 c16 -17 19 -36 18 -104 0 -73 -4 -91 -37 -159 -64 -134 -193 -244
-310 -263 -38 -6 -38 -6 -31 23 40 166 110 339 176 430 36 51 100 94 139 94
14 0 34 -9 45 -21z m-2732 -50 c14 -17 26 -41 26 -54 0 -54 -134 -653 -156
-701 -14 -29 -44 -70 -68 -92 -110 -101 -234 -64 -252 74 -33 268 133 720 291
790 17 7 53 13 82 14 45 0 54 -4 77 -31z"/>
<path d="M12630 2706 c-257 -101 -506 -270 -661 -449 l-59 -68 0 -318 0 -318
-123 -61 c-201 -98 -316 -205 -352 -327 -101 -335 343 -610 1145 -711 171 -22
558 -29 746 -15 482 38 867 142 1101 297 98 65 156 128 195 212 27 55 30 71
26 135 -2 53 -10 87 -30 128 -29 59 -115 150 -188 200 -59 40 -203 111 -285
140 l-65 24 0 181 c0 174 -1 181 -22 202 -46 42 -1293 782 -1318 782 -14 -1
-63 -16 -110 -34z m462 -377 c194 -117 357 -215 362 -220 5 -4 -2 -13 -16 -20
-14 -6 -35 -29 -48 -50 -31 -57 -68 -87 -118 -98 -98 -21 -157 22 -203 147
-30 82 -148 78 -173 -5 -10 -33 -71 -81 -111 -89 -99 -18 -195 56 -195 150 0
13 -12 38 -26 55 -21 26 -33 31 -68 31 -48 0 -74 -21 -99 -80 -19 -47 -48 -71
-104 -85 -60 -15 -113 -3 -155 37 l-31 29 59 60 c73 75 215 183 313 238 88 50
220 110 243 110 9 1 176 -94 370 -210z m606 -363 c62 -38 112 -72 112 -76 0
-10 -37 -20 -74 -20 -45 0 -113 37 -136 74 -22 37 -39 101 -24 95 6 -2 60 -35
122 -73z m-1179 -70 c68 -62 144 -89 247 -84 67 2 91 8 141 34 l59 31 40 -35
c70 -62 137 -86 234 -87 77 0 93 3 150 32 l65 32 40 -39 c99 -97 253 -123 388
-65 15 6 17 0 17 -59 0 -41 -4 -66 -11 -66 -6 0 -409 50 -896 110 -487 61
-889 110 -894 110 -5 0 -9 22 -9 49 l0 50 38 -16 c24 -11 66 -17 122 -17 76
-1 91 2 145 30 33 17 64 32 69 33 5 0 30 -19 55 -43z m1374 -496 c4 0 7 -13 7
-30 0 -16 -3 -30 -7 -30 -5 0 -412 50 -905 112 l-898 112 0 31 0 31 898 -112
c493 -62 900 -113 905 -114z m-903 -135 c465 -58 860 -107 878 -110 l32 -6 0
-69 c0 -64 -2 -70 -20 -70 -12 0 -416 50 -900 110 -484 61 -882 110 -885 110
-3 0 -5 33 -5 73 l0 74 28 -4 c15 -2 407 -50 872 -108z m1235 48 c140 -70 235
-165 235 -236 0 -78 -88 -170 -232 -240 -477 -236 -1352 -293 -2016 -132 -376
91 -612 235 -612 372 0 42 51 115 112 161 46 34 167 102 183 102 3 0 5 -50 5
-111 0 -108 1 -111 28 -139 17 -16 44 -30 68 -34 97 -15 1967 -246 1994 -246
21 0 41 9 61 29 l29 29 0 256 0 255 38 -16 c20 -8 69 -31 107 -50z"/>
<path d="M4543 2285 c-163 -36 -314 -163 -426 -356 -74 -130 -147 -399 -147
-548 0 -75 -37 -148 -115 -227 -53 -53 -168 -124 -181 -111 -2 2 52 269 121
593 70 324 129 601 132 617 l6 27 -194 -2 -194 -3 -95 -445 c-104 -486 -118
-528 -193 -597 -94 -86 -187 -55 -187 62 0 19 45 246 100 506 55 260 100 474
100 476 0 7 -379 3 -384 -5 -2 -4 -46 -203 -96 -442 -94 -440 -112 -502 -171
-585 -57 -80 -155 -101 -210 -46 -24 25 -29 37 -29 80 0 39 158 824 197 979
l5 22 -195 0 -194 0 -13 -62 c-12 -61 -13 -62 -21 -31 -32 115 -254 140 -445
49 -208 -99 -382 -378 -438 -705 -38 -225 -9 -394 86 -497 159 -173 441 -136
608 80 39 51 50 56 50 24 1 -31 36 -107 63 -136 35 -37 81 -61 137 -72 137
-26 341 57 434 177 l34 44 16 -48 c37 -110 134 -177 260 -176 114 0 205 34
281 104 l43 40 -14 -63 c-8 -35 -16 -68 -18 -74 -2 -5 -24 -16 -47 -23 -70
-21 -233 -109 -283 -152 -115 -101 -139 -284 -50 -388 95 -111 289 -131 463
-49 152 72 229 208 286 505 l17 92 52 17 c80 25 181 90 246 156 52 54 60 59
66 42 4 -10 20 -38 36 -61 114 -169 440 -197 688 -60 70 39 164 113 218 171
23 25 42 43 42 41 0 -5 -45 -217 -55 -262 l-5 -23 195 0 c107 0 195 4 195 8 0
4 47 233 105 507 l105 500 37 33 c48 43 78 58 130 67 37 6 43 4 57 -17 8 -13
18 -40 22 -61 3 -22 17 -51 29 -65 21 -24 31 -27 83 -27 110 1 182 79 182 196
-1 168 -143 243 -315 165 -27 -13 -80 -46 -117 -75 -38 -28 -68 -46 -68 -39 1
7 7 40 15 73 8 33 15 63 15 68 0 4 -87 7 -193 7 l-193 0 -90 -427 -89 -428
-50 -54 c-76 -82 -187 -167 -252 -191 -81 -31 -208 -38 -267 -16 -72 28 -90
66 -94 202 l-4 112 73 12 c280 47 499 243 539 480 23 139 -16 243 -113 295
-46 26 -63 29 -157 32 -65 1 -129 -3 -167 -12z m212 -145 c43 -47 25 -201 -36
-307 -62 -108 -187 -203 -292 -220 l-35 -5 15 63 c34 151 108 322 173 404 61
77 138 105 175 65z m-2650 -44 c13 -13 27 -35 30 -48 3 -13 -25 -169 -64 -351
-76 -355 -92 -401 -164 -462 -52 -45 -110 -60 -162 -43 -32 10 -45 22 -63 58
-22 42 -23 53 -19 175 11 281 128 573 267 666 58 39 139 41 175 5z m1122
-1323 c-3 -10 -11 -43 -18 -73 -28 -129 -92 -220 -152 -220 -36 1 -58 15 -75
47 -40 75 21 162 162 229 81 39 89 41 83 17z"/>
</g>
</svg>
