<?xml version="1.0" standalone="no"?>
<!DOCTYPE svg PUBLIC "-//W3C//DTD SVG 20010904//EN"
 "http://www.w3.org/TR/2001/REC-SVG-20010904/DTD/svg10.dtd">
<svg version="1.0" xmlns="http://www.w3.org/2000/svg"
 viewBox="0 0 1628.000000 304.000000"
 preserveAspectRatio="xMidYMid meet">
<metadata>
Created by potrace 1.15, written by Peter Selinger 2001-2017
</metadata>
<g transform="translate(0.000000,304.000000) scale(0.100000,-0.100000)"
fill="#000000" stroke="none">
<path d="M1010 2719 c-341 -32 -681 -265 -777 -533 -31 -88 -14 -236 35 -289
29 -33 93 -59 155 -65 56 -5 60 -4 53 14 -45 108 -27 307 39 441 44 88 128
176 214 222 35 18 64 31 66 29 3 -2 -79 -391 -180 -863 -102 -473 -185 -862
-185 -866 0 -3 39 -9 87 -12 169 -11 284 -68 548 -273 300 -232 415 -294 539
-294 101 0 186 82 230 220 28 86 42 170 30 170 -5 0 -31 -7 -59 -16 -31 -10
-88 -16 -151 -16 -135 0 -224 30 -501 172 -118 60 -242 118 -277 130 l-62 20
193 902 c106 496 192 902 191 903 -11 8 -118 10 -188 4z"/>
<path d="M11185 2646 c-68 -30 -124 -114 -125 -187 0 -19 11 -58 25 -86 74
-148 280 -150 355 -2 37 72 18 182 -41 236 -54 50 -150 67 -214 39z"/>
<path d="M8345 2597 c-82 -11 -151 -21 -152 -22 -1 0 -64 -289 -138 -641 -146
-683 -162 -739 -234 -811 -56 -56 -138 -64 -181 -18 -36 38 -27 108 70 564 49
234 90 430 90 438 0 10 -37 13 -179 13 l-180 0 -12 -57 c-11 -54 -13 -56 -20
-29 -20 73 -88 101 -226 94 -158 -8 -266 -64 -375 -192 -132 -157 -208 -340
-240 -579 l-12 -88 -60 -56 c-120 -111 -213 -153 -340 -153 -80 0 -128 19
-160 63 -16 21 -21 47 -24 121 -10 226 90 559 209 699 73 85 159 85 175 0 6
-32 -7 -138 -22 -176 -6 -17 43 -37 92 -37 46 0 100 49 115 103 18 69 6 162
-28 211 -45 64 -98 88 -209 94 -216 11 -365 -62 -503 -245 -144 -192 -238
-538 -202 -743 32 -181 134 -276 321 -299 211 -26 434 65 597 243 l51 55 7
-37 c21 -117 106 -215 218 -251 58 -20 174 -16 235 7 69 26 143 82 197 148 24
30 46 51 48 47 2 -5 10 -29 16 -54 49 -182 283 -216 496 -73 61 41 67 43 61
22 -3 -13 -9 -40 -12 -60 l-7 -38 181 0 180 0 11 48 c6 26 36 166 66 310 60
290 54 276 147 327 47 26 95 34 134 21 54 -17 61 -108 24 -291 -42 -206 -2
-333 123 -394 93 -45 243 -44 336 2 51 25 150 113 170 151 19 34 25 33 39 -8
21 -57 109 -129 191 -156 120 -38 295 -26 425 30 127 54 269 179 376 332 l51
73 -42 3 c-40 3 -45 0 -113 -66 -142 -139 -229 -182 -370 -182 -138 0 -178 45
-184 205 l-4 101 72 12 c211 36 391 165 472 338 26 56 33 84 36 155 6 131 -24
196 -112 241 -51 26 -203 36 -287 19 -290 -60 -508 -382 -548 -806 -11 -107
-37 -167 -92 -205 -60 -43 -152 -35 -179 15 -15 28 -10 82 20 220 36 164 10
289 -75 364 -44 38 -130 64 -200 59 -41 -2 -51 0 -42 8 7 7 115 83 241 170
l230 159 -122 3 -121 3 -236 -187 c-130 -102 -238 -184 -241 -182 -2 3 36 195
86 427 49 232 90 426 90 431 0 13 -39 11 -215 -13z m1591 -608 c15 -17 19 -36
19 -98 -1 -67 -5 -87 -38 -154 -58 -124 -171 -219 -286 -242 l-34 -7 7 41 c19
123 113 341 179 415 58 65 119 83 153 45z m-2602 -23 c20 -8 37 -25 46 -45 11
-28 6 -61 -50 -329 -36 -173 -73 -321 -87 -355 -52 -117 -159 -175 -242 -132
-52 26 -64 72 -59 214 6 154 40 295 103 426 68 142 127 206 209 226 45 10 44
10 80 -5z"/>
<path d="M14185 2496 c-196 -82 -355 -186 -508 -335 -49 -47 -95 -98 -103
-113 -11 -21 -14 -86 -14 -313 0 -229 -3 -285 -13 -285 -26 0 -203 -96 -264
-142 -213 -165 -216 -386 -6 -553 75 -59 229 -135 367 -180 307 -100 782 -152
1156 -126 662 46 1113 218 1227 468 32 70 30 163 -7 238 -58 119 -234 241
-462 318 -16 6 -18 23 -18 166 0 152 -1 161 -22 185 -32 35 -1157 707 -1193
712 -20 3 -65 -10 -140 -40z m457 -332 l327 -196 -32 -32 c-18 -17 -39 -45
-48 -62 -9 -17 -32 -38 -51 -47 -91 -43 -184 2 -213 103 -13 44 -45 70 -87 70
-39 0 -78 -27 -78 -53 0 -15 -45 -59 -77 -76 -52 -26 -136 -3 -172 47 -12 17
-25 52 -30 78 -11 57 -39 84 -85 84 -37 0 -58 -18 -89 -74 -29 -52 -65 -77
-119 -83 -49 -6 -90 10 -123 47 l-20 22 83 78 c86 81 206 166 302 215 65 33
161 74 175 75 5 0 157 -88 337 -196z m-544 -373 c28 -38 133 -90 198 -97 56
-7 147 14 200 47 l31 19 29 -31 c15 -16 53 -42 83 -57 45 -21 70 -27 131 -27
64 0 85 5 137 30 l61 30 49 -45 c80 -74 196 -99 293 -65 23 8 46 15 51 15 5 0
9 -25 9 -55 0 -52 -1 -55 -25 -55 -25 0 -1519 184 -1582 195 -31 6 -33 9 -33
45 0 22 1 40 3 40 1 0 24 -7 51 -15 27 -8 68 -15 91 -15 48 0 129 25 165 51
33 24 33 24 58 -10z m492 -370 l775 -96 3 -28 c2 -15 -2 -27 -8 -27 -6 0 -370
45 -810 100 -440 55 -804 100 -810 100 -5 0 -10 13 -10 30 0 29 1 30 43 24 23
-3 391 -49 817 -103z m-37 -221 c437 -55 800 -100 806 -100 7 0 11 -24 11 -65
0 -59 -2 -65 -20 -65 -21 0 -1509 184 -1582 196 l-38 6 0 64 c0 49 3 64 14 64
8 0 372 -45 809 -100z m1081 61 c118 -57 198 -119 226 -175 33 -69 23 -106
-49 -176 -278 -272 -1259 -385 -1941 -224 -224 52 -418 133 -508 209 -22 19
-50 55 -62 79 -18 38 -20 50 -10 84 13 51 102 134 191 180 l64 33 6 -98 c6
-109 16 -135 56 -151 30 -12 1777 -232 1840 -232 24 0 45 7 60 22 23 21 23 24
23 255 0 157 3 233 11 233 5 0 47 -18 93 -39z"/>
<path d="M12005 2173 c-93 -13 -173 -27 -176 -31 -4 -4 -21 -52 -39 -107 -51
-157 -116 -317 -191 -473 -56 -116 -79 -152 -119 -189 -63 -58 -89 -112 -94
-194 -4 -64 -4 -64 -68 -124 -55 -53 -169 -118 -168 -97 0 4 56 266 124 582
l122 575 -179 3 c-99 1 -181 1 -182 0 -2 -2 -62 -282 -134 -623 -72 -341 -134
-626 -138 -633 -5 -7 -44 -28 -88 -46 -207 -84 -308 -184 -322 -320 -8 -75 17
-145 67 -190 53 -48 101 -66 186 -73 177 -14 346 80 418 232 28 59 78 237 91
326 l7 46 71 28 c74 28 133 64 193 117 l34 30 45 -50 c82 -91 204 -129 356
-112 124 15 209 48 295 116 22 18 83 61 134 95 51 34 136 104 189 155 l96 93
-52 1 c-46 0 -59 -5 -104 -39 -28 -21 -68 -48 -90 -60 l-39 -22 6 58 c3 32 -1
144 -10 248 -8 105 -20 287 -26 405 -14 264 -18 300 -33 299 -7 -1 -88 -12
-182 -26z m-137 -590 c25 -300 26 -342 11 -396 -13 -48 -62 -103 -108 -124
-50 -22 -152 -22 -185 0 -35 24 -55 56 -58 97 l-3 35 42 -3 c57 -5 97 18 117
68 22 56 20 75 -12 112 l-29 31 62 131 c35 72 78 173 96 223 19 51 36 93 39
93 3 0 15 -120 28 -267z m-1142 -902 c-13 -82 -46 -168 -82 -209 -30 -36 -41
-42 -74 -42 -81 0 -104 92 -42 169 23 29 174 121 199 121 3 0 3 -17 -1 -39z"/>
<path d="M4203 2125 c-70 -19 -148 -59 -202 -103 -61 -49 -155 -172 -197 -254
-69 -137 -121 -335 -125 -473 -2 -86 -39 -165 -111 -238 -38 -38 -165 -114
-174 -104 -1 1 54 263 122 582 68 319 124 581 124 583 0 1 -82 1 -182 0 l-183
-3 -72 -340 c-110 -520 -109 -516 -152 -582 -43 -66 -78 -93 -130 -100 -54 -7
-82 20 -88 83 -4 43 61 378 177 907 l8 37 -182 0 -182 0 -83 -392 c-89 -428
-106 -487 -157 -565 -39 -61 -81 -86 -143 -86 -62 0 -91 34 -91 108 0 41 101
548 179 898 l9 37 -183 0 -183 0 -7 -42 c-10 -60 -15 -64 -33 -26 -11 21 -34
42 -62 56 -41 21 -55 23 -150 19 -77 -3 -119 -10 -159 -26 -235 -95 -420 -395
-462 -750 -33 -284 68 -466 277 -500 132 -21 239 21 355 140 68 69 79 77 79
57 0 -43 52 -131 95 -161 118 -81 339 -33 477 105 31 31 59 54 61 50 3 -4 10
-23 16 -43 15 -48 73 -107 129 -131 74 -33 219 -22 303 22 12 7 42 31 67 54
l45 41 -7 -35 c-4 -19 -10 -49 -13 -66 -5 -28 -13 -34 -87 -64 -231 -93 -332
-201 -329 -355 2 -178 187 -277 404 -217 193 54 280 171 339 457 25 121 34
145 57 145 41 0 169 77 237 142 39 37 72 68 72 68 1 0 4 -10 8 -23 10 -42 84
-115 149 -147 74 -36 171 -50 277 -39 156 15 291 82 423 208 46 43 77 67 74
56 -4 -11 -16 -65 -27 -120 -12 -55 -24 -108 -26 -117 -5 -17 8 -18 178 -18
l184 0 99 477 c96 458 101 477 130 505 45 44 101 70 143 66 36 -3 38 -5 59
-68 26 -76 42 -90 100 -90 181 0 249 234 100 344 -23 17 -43 21 -101 21 -83 0
-135 -22 -237 -101 -67 -51 -64 -55 -38 46 16 63 25 60 -171 60 l-179 0 -10
-37 c-5 -21 -44 -202 -86 -403 l-77 -365 -61 -64 c-134 -138 -239 -191 -381
-191 -85 0 -132 20 -160 69 -16 28 -20 54 -21 134 l0 100 80 18 c298 64 495
268 496 513 1 112 -33 175 -116 219 -52 28 -232 34 -312 12z m216 -141 c24
-30 27 -90 10 -163 -35 -155 -173 -296 -316 -326 -42 -8 -42 1 -8 121 32 109
112 276 157 326 62 70 123 86 157 42z m-2531 -15 c34 -12 62 -47 62 -79 0 -31
-108 -536 -131 -614 -17 -56 -30 -78 -73 -121 -56 -56 -94 -71 -151 -61 -79
15 -102 77 -92 250 11 181 71 372 157 499 60 89 106 122 191 136 3 1 20 -4 37
-10z m1086 -1276 c-38 -174 -90 -263 -154 -263 -43 0 -66 14 -78 49 -25 71 30
146 151 206 38 19 74 35 79 35 4 0 6 -12 2 -27z"/>
<path d="M10395 1231 c-57 -26 -96 -72 -111 -130 -50 -195 183 -332 329 -193
57 54 75 121 52 198 -34 115 -163 175 -270 125z"/>
</g>
</svg>
